# xmcd
#
# Track frame offsets: 
#        150
#        19935
#        47328
#        67113
#
# Disc length: 1256 seconds
#
# Revision: 5
# Processed by: cddbd v1.5.2PL0 Copyright (c) Steve Scherf et al.
# Submitted via: ExactAudioCopy v1.0b3
#
DISCID=2e04e604
DTITLE=ALI PROJECT - 勇侠青春謳
DYEAR=2006
DGENRE=JPop
TTITLE0=勇侠青春謳
TTITLE1=鎮魂頌
TTITLE2=勇侠青春謳[instrumental]
TTITLE3=鎮魂頌[instrumental]
EXTD=YEAR: 2006
EXTT0=
EXTT1=
EXTT2=
EXTT3=
PLAYORDER=
